<svg width="114" height="51" viewBox="0 0 114 51" fill="none" xmlns="http://www.w3.org/2000/svg">
<path d="M5.96397 0.551514V24.9244H0.810913V0.551514H5.96397Z" fill="black"/>
<path d="M15.1782 14.3565V24.9244H10.1084V6.64474H14.9402V9.86986H15.1544C15.559 8.80672 16.2374 7.96573 17.1894 7.34688C18.1415 6.72011 19.2959 6.40672 20.6526 6.40672C21.922 6.40672 23.0288 6.68441 23.9729 7.23978C24.917 7.79515 25.6509 8.58854 26.1745 9.61994C26.6982 10.6434 26.96 11.8652 26.96 13.2854V24.9244H21.8902V14.1899C21.8982 13.0712 21.6126 12.1985 21.0334 11.5717C20.4542 10.937 19.6569 10.6196 18.6413 10.6196C17.959 10.6196 17.356 10.7664 16.8324 11.0599C16.3167 11.3535 15.9121 11.7819 15.6185 12.3452C15.3329 12.9006 15.1861 13.571 15.1782 14.3565Z" fill="black"/>
<path d="M47.3431 6.64474L40.9524 24.9244H35.24L28.8493 6.64474H34.2046L38.001 19.7237H38.1914L41.9759 6.64474H47.3431Z" fill="black"/>
<path d="M57.679 25.2814C55.7987 25.2814 54.1802 24.9006 52.8235 24.1389C51.4747 23.3694 50.4354 22.2824 49.7055 20.8781C48.9755 19.4659 48.6106 17.7958 48.6106 15.8679C48.6106 13.9875 48.9755 12.3373 49.7055 10.9171C50.4354 9.49697 51.4628 8.39019 52.7878 7.5968C54.1207 6.80341 55.6836 6.40672 57.4767 6.40672C58.6826 6.40672 59.8053 6.6011 60.8446 6.98986C61.8919 7.37069 62.8043 7.94589 63.5818 8.71548C64.3673 9.48507 64.9782 10.453 65.4145 11.6193C65.8509 12.7776 66.0691 14.1343 66.0691 15.6894V17.0818H50.6337V13.9399H61.2969C61.2969 13.21 61.1382 12.5634 60.8208 12.0001C60.5035 11.4368 60.0631 10.9965 59.4998 10.6791C58.9445 10.3538 58.2978 10.1912 57.56 10.1912C56.7904 10.1912 56.1081 10.3697 55.5131 10.7267C54.9259 11.0758 54.4658 11.5479 54.1326 12.1429C53.7993 12.73 53.6288 13.3846 53.6208 14.1066V17.0937C53.6208 17.9981 53.7874 18.7796 54.1207 19.4381C54.4618 20.0966 54.9418 20.6044 55.5607 20.9614C56.1795 21.3185 56.9134 21.497 57.7623 21.497C58.3256 21.497 58.8413 21.4176 59.3094 21.2589C59.7775 21.1003 60.1782 20.8623 60.5114 20.5449C60.8446 20.2275 61.0985 19.8388 61.2731 19.3786L65.962 19.688C65.724 20.8147 65.236 21.7985 64.4982 22.6394C63.7683 23.4725 62.8241 24.1231 61.6658 24.5912C60.5154 25.0513 59.1864 25.2814 57.679 25.2814Z" fill="black"/>
<path d="M84.5868 11.8573L79.9454 12.1429C79.8661 11.7462 79.6955 11.3892 79.4337 11.0718C79.1719 10.7466 78.8268 10.4887 78.3983 10.2983C77.9778 10.0999 77.474 10.0008 76.8869 10.0008C76.1015 10.0008 75.439 10.1674 74.8995 10.5006C74.36 10.8259 74.0902 11.2623 74.0902 11.8097C74.0902 12.2461 74.2648 12.615 74.6139 12.9165C74.963 13.218 75.562 13.4599 76.4109 13.6424L79.7193 14.3089C81.4965 14.6738 82.8215 15.2609 83.6942 16.0702C84.5669 16.8794 85.0033 17.9426 85.0033 19.2596C85.0033 20.4576 84.6502 21.5089 83.9441 22.4133C83.2459 23.3178 82.2859 24.0239 81.0641 24.5317C79.8502 25.0315 78.4499 25.2814 76.8631 25.2814C74.4433 25.2814 72.5154 24.7776 71.0793 23.77C69.6512 22.7545 68.8142 21.374 68.5683 19.6285L73.5547 19.3667C73.7054 20.1046 74.0704 20.6679 74.6496 21.0566C75.2287 21.4375 75.9706 21.6279 76.875 21.6279C77.7636 21.6279 78.4777 21.4573 79.0172 21.1161C79.5646 20.767 79.8423 20.3188 79.8502 19.7713C79.8423 19.3112 79.6479 18.9343 79.2671 18.6408C78.8863 18.3393 78.2992 18.1092 77.5058 17.9505L74.3402 17.3198C72.555 16.9627 71.2261 16.3439 70.3534 15.4632C69.4886 14.5826 69.0562 13.4599 69.0562 12.0953C69.0562 10.9211 69.3735 9.90953 70.0083 9.0606C70.6509 8.21168 71.5514 7.55713 72.7097 7.09697C73.876 6.6368 75.2407 6.40672 76.8036 6.40672C79.1124 6.40672 80.9292 6.89465 82.2542 7.87052C83.5871 8.84639 84.3646 10.1753 84.5868 11.8573Z" fill="black"/>
<path d="M97.9187 6.64474V10.453H86.9104V6.64474H97.9187ZM89.4096 2.26523H94.4793V19.3072C94.4793 19.7753 94.5507 20.1403 94.6935 20.4021C94.8364 20.656 95.0347 20.8345 95.2886 20.9376C95.5504 21.0408 95.8519 21.0923 96.193 21.0923C96.4311 21.0923 96.6691 21.0725 96.9071 21.0328C97.1451 20.9852 97.3276 20.9495 97.4545 20.9257L98.2519 24.6983C97.998 24.7776 97.641 24.8689 97.1808 24.972C96.7207 25.0831 96.1613 25.1505 95.5028 25.1743C94.281 25.2219 93.2099 25.0593 92.2896 24.6864C91.3772 24.3135 90.6671 23.7343 90.1593 22.9489C89.6516 22.1634 89.4016 21.1717 89.4096 19.9737V2.26523Z" fill="black"/>
<path d="M101.221 24.9244V6.64474H106.136V9.83416H106.327C106.66 8.69961 107.219 7.84275 108.005 7.26358C108.79 6.67647 109.695 6.38292 110.718 6.38292C110.972 6.38292 111.246 6.39879 111.539 6.43052C111.833 6.46226 112.091 6.50589 112.313 6.56143V11.0599C112.075 10.9885 111.745 10.9251 111.325 10.8695C110.904 10.814 110.52 10.7862 110.171 10.7862C109.425 10.7862 108.758 10.9489 108.171 11.2742C107.592 11.5915 107.132 12.0358 106.791 12.607C106.458 13.1783 106.291 13.8368 106.291 14.5826V24.9244H101.221Z" fill="black"/>
<path d="M67.2108 39.3829C67.1773 39.0454 67.0337 38.7832 66.7799 38.5963C66.526 38.4094 66.1816 38.316 65.7464 38.316C65.4508 38.316 65.2011 38.3578 64.9975 38.4415C64.7939 38.5224 64.6377 38.6354 64.5289 38.7804C64.4229 38.9254 64.37 39.09 64.37 39.2741C64.3644 39.4275 64.3964 39.5614 64.4662 39.6758C64.5387 39.7901 64.6377 39.8891 64.7632 39.9728C64.8888 40.0537 65.0338 40.1248 65.1984 40.1862C65.3629 40.2448 65.5386 40.295 65.7255 40.3368L66.4954 40.5209C66.8691 40.6046 67.2122 40.7161 67.5246 40.8556C67.837 40.9951 68.1076 41.1666 68.3363 41.3702C68.565 41.5738 68.7421 41.8137 68.8676 42.0899C68.9959 42.366 69.0615 42.6826 69.0643 43.0396C69.0615 43.564 68.9276 44.0186 68.6626 44.4035C68.4004 44.7857 68.0211 45.0827 67.5246 45.2947C67.0309 45.5039 66.4354 45.6085 65.7381 45.6085C65.0463 45.6085 64.4439 45.5025 63.9306 45.2905C63.4202 45.0785 63.0213 44.7647 62.7341 44.3491C62.4495 43.9308 62.3003 43.4134 62.2864 42.7969H64.0394C64.0589 43.0842 64.1412 43.3241 64.2863 43.5166C64.4341 43.7062 64.6307 43.8499 64.8762 43.9475C65.1244 44.0423 65.4048 44.0897 65.7172 44.0897C66.024 44.0897 66.2904 44.0451 66.5163 43.9559C66.745 43.8666 66.9221 43.7425 67.0476 43.5835C67.1732 43.4245 67.2359 43.2418 67.2359 43.0354C67.2359 42.843 67.1787 42.6812 67.0644 42.5501C66.9528 42.419 66.7882 42.3074 66.5707 42.2154C66.3559 42.1233 66.0923 42.0396 65.7799 41.9643L64.8469 41.73C64.1245 41.5543 63.5541 41.2796 63.1357 40.9058C62.7173 40.5321 62.5095 40.0286 62.5123 39.3954C62.5095 38.8766 62.6476 38.4234 62.9265 38.0357C63.2082 37.648 63.5945 37.3453 64.0854 37.1278C64.5764 36.9102 65.1342 36.8014 65.759 36.8014C66.395 36.8014 66.95 36.9102 67.4242 37.1278C67.9012 37.3453 68.2721 37.648 68.5371 38.0357C68.8021 38.4234 68.9388 38.8724 68.9471 39.3829H67.2108Z" fill="#2FE42F"/>
<path d="M69.9565 38.4122V36.9186H76.9938V38.4122H74.3705V45.4872H72.5798V38.4122H69.9565Z" fill="#2FE42F"/>
<path d="M85.6356 41.2029C85.6356 42.1373 85.4585 42.9322 85.1042 43.5877C84.7528 44.2432 84.273 44.7438 83.665 45.0897C83.0597 45.4328 82.3791 45.6043 81.6232 45.6043C80.8618 45.6043 80.1784 45.4314 79.5731 45.0855C78.9679 44.7396 78.4895 44.239 78.1381 43.5835C77.7866 42.928 77.6109 42.1345 77.6109 41.2029C77.6109 40.2685 77.7866 39.4735 78.1381 38.8181C78.4895 38.1626 78.9679 37.6633 79.5731 37.3202C80.1784 36.9744 80.8618 36.8014 81.6232 36.8014C82.3791 36.8014 83.0597 36.9744 83.665 37.3202C84.273 37.6633 84.7528 38.1626 85.1042 38.8181C85.4585 39.4735 85.6356 40.2685 85.6356 41.2029ZM83.7989 41.2029C83.7989 40.5976 83.7082 40.0872 83.5269 39.6716C83.3484 39.256 83.096 38.9408 82.7696 38.726C82.4433 38.5112 82.0612 38.4039 81.6232 38.4039C81.1853 38.4039 80.8032 38.5112 80.4769 38.726C80.1505 38.9408 79.8967 39.256 79.7154 39.6716C79.5369 40.0872 79.4476 40.5976 79.4476 41.2029C79.4476 41.8081 79.5369 42.3186 79.7154 42.7342C79.8967 43.1498 80.1505 43.465 80.4769 43.6797C80.8032 43.8945 81.1853 44.0019 81.6232 44.0019C82.0612 44.0019 82.4433 43.8945 82.7696 43.6797C83.096 43.465 83.3484 43.1498 83.5269 42.7342C83.7082 42.3186 83.7989 41.8081 83.7989 41.2029Z" fill="#2FE42F"/>
<path d="M94.5379 39.9184H92.7053C92.6718 39.6813 92.6035 39.4707 92.5003 39.2866C92.3971 39.0998 92.2646 38.9408 92.1028 38.8097C91.9411 38.6786 91.7542 38.5782 91.5422 38.5084C91.333 38.4387 91.1057 38.4039 90.8602 38.4039C90.4167 38.4039 90.0304 38.514 89.7013 38.7344C89.3721 38.9519 89.1169 39.2699 88.9356 39.6883C88.7543 40.1039 88.6637 40.6088 88.6637 41.2029C88.6637 41.8137 88.7543 42.3269 88.9356 42.7425C89.1197 43.1581 89.3763 43.4719 89.7055 43.6839C90.0346 43.8959 90.4153 44.0019 90.8477 44.0019C91.0903 44.0019 91.3149 43.9698 91.5213 43.9057C91.7305 43.8415 91.9159 43.7481 92.0777 43.6253C92.2395 43.4998 92.3734 43.3478 92.4794 43.1693C92.5882 42.9908 92.6635 42.7872 92.7053 42.5584L94.5379 42.5668C94.4904 42.9601 94.3719 43.3394 94.1822 43.7048C93.9953 44.0674 93.7429 44.3924 93.4249 44.6797C93.1098 44.9642 92.7332 45.1901 92.2953 45.3575C91.8602 45.522 91.3679 45.6043 90.8184 45.6043C90.0541 45.6043 89.3708 45.4314 88.7683 45.0855C88.1686 44.7396 87.6944 44.239 87.3458 43.5835C86.9999 42.928 86.827 42.1345 86.827 41.2029C86.827 40.2685 87.0027 39.4735 87.3541 38.8181C87.7056 38.1626 88.1825 37.6633 88.785 37.3202C89.3875 36.9744 90.0653 36.8014 90.8184 36.8014C91.3149 36.8014 91.7751 36.8712 92.1991 37.0106C92.6258 37.1501 93.0038 37.3537 93.3329 37.6215C93.662 37.8864 93.9298 38.2114 94.1362 38.5963C94.3454 38.9812 94.4793 39.4219 94.5379 39.9184Z" fill="#2FE42F"/>
<path d="M95.8369 45.4872V36.9186H97.6486V40.6966H97.7615L100.845 36.9186H103.016L99.8367 40.7552L103.054 45.4872H100.887L98.5397 41.9643L97.6486 43.0521V45.4872H95.8369Z" fill="#2FE42F"/>
<path d="M108.539 39.3829C108.506 39.0454 108.362 38.7832 108.108 38.5963C107.854 38.4094 107.51 38.316 107.075 38.316C106.779 38.316 106.53 38.3578 106.326 38.4415C106.122 38.5224 105.966 38.6354 105.857 38.7804C105.751 38.9254 105.698 39.09 105.698 39.2741C105.693 39.4275 105.725 39.5614 105.795 39.6758C105.867 39.7901 105.966 39.8891 106.092 39.9728C106.217 40.0537 106.362 40.1248 106.527 40.1862C106.691 40.2448 106.867 40.295 107.054 40.3368L107.824 40.5209C108.198 40.6046 108.541 40.7161 108.853 40.8556C109.165 40.9951 109.436 41.1666 109.665 41.3702C109.893 41.5738 110.071 41.8137 110.196 42.0899C110.324 42.366 110.39 42.6826 110.393 43.0396C110.39 43.564 110.256 44.0186 109.991 44.4035C109.729 44.7857 109.349 45.0827 108.853 45.2947C108.359 45.5039 107.764 45.6085 107.066 45.6085C106.375 45.6085 105.772 45.5025 105.259 45.2905C104.749 45.0785 104.35 44.7647 104.062 44.3491C103.778 43.9308 103.629 43.4134 103.615 42.7969H105.368C105.387 43.0842 105.47 43.3241 105.615 43.5166C105.763 43.7062 105.959 43.8499 106.205 43.9475C106.453 44.0423 106.733 44.0897 107.046 44.0897C107.352 44.0897 107.619 44.0451 107.845 43.9559C108.073 43.8666 108.251 43.7425 108.376 43.5835C108.502 43.4245 108.564 43.2418 108.564 43.0354C108.564 42.843 108.507 42.6812 108.393 42.5501C108.281 42.419 108.117 42.3074 107.899 42.2154C107.684 42.1233 107.421 42.0396 107.108 41.9643L106.175 41.73C105.453 41.5543 104.883 41.2796 104.464 40.9058C104.046 40.5321 103.838 40.0286 103.841 39.3954C103.838 38.8766 103.976 38.4234 104.255 38.0357C104.537 37.648 104.923 37.3453 105.414 37.1278C105.905 36.9102 106.463 36.8014 107.087 36.8014C107.723 36.8014 108.278 36.9102 108.753 37.1278C109.23 37.3453 109.601 37.648 109.866 38.0357C110.13 38.4234 110.267 38.8724 110.276 39.3829H108.539Z" fill="#2FE42F"/>
<rect x="59.8864" y="32.4814" width="52.9063" height="17.4471" rx="4.32" stroke="#00BB57" stroke-width="0.96"/>
</svg>
